Coordinates
version=1
nRows=7
nColumns=40
inDegrees=yes

Units are S.I. units (second, meters, Newtons, ...)
Angles are in degrees.

endheader
time	pelvis_tilt	pelvis_list	pelvis_rotation	pelvis_tx	pelvis_ty	pelvis_tz	hip_flexion_r	hip_adduction_r	hip_rotation_r	knee_angle_r	knee_angle_r_beta	ankle_angle_r	subtalar_angle_r	mtp_angle_r	hip_flexion_l	hip_adduction_l	hip_rotation_l	knee_angle_l	knee_angle_l_beta	ankle_angle_l	subtalar_angle_l	mtp_angle_l	lumbar_extension	lumbar_bending	lumbar_rotation	arm_flex_r	arm_add_r	arm_rot_r	elbow_flex_r	pro_sup_r	wrist_flex_r	wrist_dev_r	arm_flex_l	arm_add_l	arm_rot_l	elbow_flex_l	pro_sup_l	wrist_flex_l	wrist_dev_l
     25.17000000	     -3.06122722	     -5.79049895	      5.11189247	      0.87069823	      0.92900110	      0.46268366	     12.69620004	      1.95939520	    -16.41599341	     17.47950335	     17.47950335	      9.68551098	     -0.70049137	     -3.85153775	     26.26432312	    -12.07750049	      5.37016454	     61.62679244	     61.62679244	      9.95726330	    -18.24110179	     10.81561411	    -10.66227571	      5.07022198	      4.92579943	     12.32461668	    -22.18104607	    -13.04191812	     59.95412107	     45.22089267	      0.00000000	      0.00000000	      3.27448226	    -20.44406748	    -12.94919771	     54.13864590	     45.68807897	      0.00000000	      0.00000000
     25.18242857	     -3.23384948	     -5.63874417	      5.51199468	      0.87022378	      0.92943178	      0.46333786	     12.26345108	      1.91935306	    -16.56890083	     16.99222792	     16.99222792	      9.88198116	     -0.78840428	     -3.84783556	     27.51155979	    -11.75879121	      5.28930653	     60.18230678	     60.18230678	     10.08873466	    -18.39089321	     11.00283316	    -10.59300364	      4.83713620	      4.84220453	     13.92765513	    -22.31853297	    -12.93223710	     61.26259317	     45.18404289	      0.00000000	      0.00000000	      2.81204785	    -20.29670460	    -12.83996669	     53.35035895	     45.68371752	      0.00000000	      0.00000000
     25.19485714	     -3.37137584	     -5.51520199	      5.89680440	      0.86975391	      0.92982026	      0.46395647	     11.79524362	      1.91997998	    -16.71508072	     16.48805114	     16.48805114	     10.05608651	     -0.84892169	     -3.88442211	     28.59809429	    -11.45004940	      5.18330862	     58.55959028	     58.55959028	     10.26641320	    -18.46679084	     11.20585487	    -10.60233533	      4.64404075	      4.72989350	     15.47258013	    -22.54662056	    -12.59307617	     62.76885925	     45.13270477	      0.00000000	      0.00000000	      2.42930058	    -20.15474481	    -12.79323452	     52.36590708	     45.68475147	      0.00000000	      0.00000000
     25.20728571	     -3.50903559	     -5.42704162	      6.30456410	      0.86930105	      0.93013326	      0.46443764	     11.33819855	      1.94829866	    -16.89142666	     15.99304619	     15.99304619	     10.19009958	     -0.94010179	     -4.00629651	     29.59481080	    -11.12964691	      5.11816160	     56.76886334	     56.76886334	     10.42478202	    -18.50156648	     11.50430227	    -10.58773244	      4.51711177	      4.65057901	     16.91793357	    -23.00646821	    -11.90040492	     64.51447876	     45.06476447	      0.00000000	      0.00000000	      2.22089780	    -19.96794072	    -12.86130739	     51.04374487	     45.70364878	      0.00000000	      0.00000000
     25.21971429	     -3.70481154	     -5.28426475	      6.67851325	      0.86880658	      0.93030088	      0.46479759	     11.00568949	      1.88905737	    -17.01391745	     15.62288042	     15.62288042	     10.39928986	     -1.06547081	     -4.04480385	     30.51822414	    -10.71056617	      5.01974560	     54.78044419	     54.78044419	     10.53256593	    -18.52914705	     11.76274740	    -10.53488453	      4.27624598	      4.88165887	     18.30339762	    -23.50875054	    -11.82100233	     65.44260574	     45.04055783	      0.00000000	      0.00000000	      2.01164400	    -19.75526903	    -12.82477651	     50.49330364	     45.70096203	      0.00000000	      0.00000000
     25.23214286	     -3.77057505	     -5.16427454	      7.12697995	      0.86843613	      0.93065216	      0.46491782	     10.43440524	      1.89074217	    -17.16428074	     15.06109790	     15.06109790	     10.51884499	     -1.20057858	     -4.11506984	     31.17268156	    -10.21862380	      5.09443195	     52.56260815	     52.56260815	     10.64003073	    -18.53488848	     12.07693404	    -10.60568092	      4.15764399	      4.57123213	     19.84950219	    -23.74016077	    -11.22558421	     67.21613288	     44.97448845	      0.00000000	      0.00000000	      1.76594123	    -19.78151337	    -12.91191915	     48.87372621	     45.71062181	      0.00000000	      0.00000000
     25.24457143	     -3.93429944	     -5.09733650	      7.53710906	      0.86792205	      0.93067438	      0.46488430	     10.09132034	      1.89361151	    -17.32480835	     14.69300067	     14.69300067	     10.54366209	     -1.44257117	     -4.51132845	     31.89679388	     -9.75520346	      5.17832673	     50.26911121	     50.26911121	     10.68577404	    -18.41138486	     12.12469770	    -10.56103489	      4.09180594	      4.81486781	     20.86086987	    -24.78893480	     -9.99346899	     69.00135101	     44.90973342	      0.00000000	      0.00000000	      2.38966756	    -19.46284552	    -13.48878902	     46.32687958	     45.80824404	      0.00000000	      0.00000000
